<svg width="28" height="28" viewBox="0 0 28 28" fill="none" xmlns="http://www.w3.org/2000/svg">
<path d="M9.33325 9.33333V8.16667C9.33325 6.92899 9.82492 5.742 10.7001 4.86683C11.5753 3.99167 12.7622 3.5 13.9999 3.5C15.2376 3.5 16.4246 3.99167 17.2998 4.86683C18.1749 5.742 18.6666 6.92899 18.6666 8.16667V9.33333" stroke="white" stroke-width="2" stroke-linecap="round"/>
<path fill-rule="evenodd" clip-rule="evenodd" d="M4.18367 8.85017C3.5 9.53384 3.5 10.6328 3.5 12.8332V16.3332C3.5 20.7327 3.5 22.933 4.86733 24.2992C6.23467 25.6653 8.43383 25.6665 12.8333 25.6665H15.1667C19.5662 25.6665 21.7665 25.6665 23.1327 24.2992C24.4988 22.9318 24.5 20.7327 24.5 16.3332V12.8332C24.5 10.6328 24.5 9.53384 23.8163 8.85017C23.1327 8.1665 22.0337 8.1665 19.8333 8.1665H8.16667C5.96633 8.1665 4.86733 8.1665 4.18367 8.85017ZM11.6667 13.9998C11.6667 13.6904 11.5437 13.3937 11.325 13.1749C11.1062 12.9561 10.8094 12.8332 10.5 12.8332C10.1906 12.8332 9.89383 12.9561 9.67504 13.1749C9.45625 13.3937 9.33333 13.6904 9.33333 13.9998V16.3332C9.33333 16.6426 9.45625 16.9393 9.67504 17.1581C9.89383 17.3769 10.1906 17.4998 10.5 17.4998C10.8094 17.4998 11.1062 17.3769 11.325 17.1581C11.5437 16.9393 11.6667 16.6426 11.6667 16.3332V13.9998ZM18.6667 13.9998C18.6667 13.6904 18.5437 13.3937 18.325 13.1749C18.1062 12.9561 17.8094 12.8332 17.5 12.8332C17.1906 12.8332 16.8938 12.9561 16.675 13.1749C16.4562 13.3937 16.3333 13.6904 16.3333 13.9998V16.3332C16.3333 16.6426 16.4562 16.9393 16.675 17.1581C16.8938 17.3769 17.1906 17.4998 17.5 17.4998C17.8094 17.4998 18.1062 17.3769 18.325 17.1581C18.5437 16.9393 18.6667 16.6426 18.6667 16.3332V13.9998Z" fill="white"/>
</svg>
