<svg width="40" height="40" viewBox="0 0 40 40" fill="none" xmlns="http://www.w3.org/2000/svg">
<path d="M8 0.5H32C36.1421 0.5 39.5 3.85786 39.5 8V32C39.5 36.1421 36.1421 39.5 32 39.5H8C3.85786 39.5 0.5 36.1421 0.5 32V8C0.5 3.85786 3.85786 0.5 8 0.5Z" stroke="#D5D7DA"/>
<path d="M23.3346 23.3333L20.0013 20L16.668 23.3333M20.0013 20V27.5M26.668 23.9524C27.6859 23.1117 28.3346 21.8399 28.3346 20.4167C28.3346 17.8854 26.2826 15.8333 23.7513 15.8333C23.5692 15.8333 23.3989 15.7383 23.3064 15.5814C22.2197 13.7374 20.2133 12.5 17.918 12.5C14.4662 12.5 11.668 15.2982 11.668 18.75C11.668 20.4718 12.3642 22.0309 13.4904 23.1613" stroke="#0A0D12" stroke-width="1.66667" stroke-linecap="round" stroke-linejoin="round"/>
</svg>
