<svg width="40" height="40" viewBox="0 0 40 40" fill="none" xmlns="http://www.w3.org/2000/svg">
<rect x="0.5" y="0.5" width="39" height="39" rx="19.5" stroke="#D5D7DA"/>
<path d="M17.1583 21.2582L22.85 24.5748M22.8417 15.4248L17.1583 18.7415M27.5 14.1665C27.5 15.5472 26.3807 16.6665 25 16.6665C23.6193 16.6665 22.5 15.5472 22.5 14.1665C22.5 12.7858 23.6193 11.6665 25 11.6665C26.3807 11.6665 27.5 12.7858 27.5 14.1665ZM17.5 19.9998C17.5 21.3805 16.3807 22.4998 15 22.4998C13.6193 22.4998 12.5 21.3805 12.5 19.9998C12.5 18.6191 13.6193 17.4998 15 17.4998C16.3807 17.4998 17.5 18.6191 17.5 19.9998ZM27.5 25.8332C27.5 27.2139 26.3807 28.3332 25 28.3332C23.6193 28.3332 22.5 27.2139 22.5 25.8332C22.5 24.4525 23.6193 23.3332 25 23.3332C26.3807 23.3332 27.5 24.4525 27.5 25.8332Z" stroke="#0A0D12" stroke-width="2.08333" stroke-linecap="round" stroke-linejoin="round"/>
</svg>
